<?xml version="1.0" standalone="no"?>
<!DOCTYPE svg PUBLIC "-//W3C//DTD SVG 20010904//EN"
 "http://www.w3.org/TR/2001/REC-SVG-20010904/DTD/svg10.dtd">
<svg version="1.0" xmlns="http://www.w3.org/2000/svg"
 width="512.000000pt" height="512.000000pt" viewBox="0 0 512.000000 512.000000"
 preserveAspectRatio="xMidYMid meet">
<metadata>
Created by potrace 1.11, written by Peter Selinger 2001-2013
</metadata>
<g transform="translate(0.000000,512.000000) scale(0.100000,-0.100000)"
fill="#000000" stroke="none">
<path d="M2423 4914 c-137 -48 -233 -153 -269 -294 -15 -58 -15 -120 -2 -213
2 -14 -101 -78 -485 -298 l-488 -280 -37 30 c-84 67 -194 104 -295 100 -170
-7 -331 -127 -385 -287 -24 -72 -23 -204 2 -272 46 -123 158 -227 284 -265
l22 -6 0 -568 0 -568 -48 -18 c-103 -40 -192 -118 -237 -208 -32 -67 -36 -85
-41 -175 -10 -221 157 -407 384 -428 107 -10 232 27 307 92 16 14 36 23 45 21
8 -3 231 -129 495 -281 299 -172 479 -280 476 -288 -12 -40 -9 -173 5 -220 44
-151 168 -265 324 -299 56 -12 188 -5 218 11 10 5 39 19 66 32 140 66 237 238
222 398 -3 36 -8 74 -11 86 -6 20 51 57 400 254 23 13 397 228 536 308 24 15
28 13 80 -25 99 -73 187 -99 301 -89 164 14 309 125 364 278 23 63 27 185 8
249 -39 135 -145 245 -274 285 l-35 11 -3 571 -2 571 22 6 c54 16 128 59 170
98 86 79 128 170 134 285 11 254 -184 449 -440 438 -104 -5 -167 -29 -257 -98
l-37 -28 -43 24 c-24 13 -116 65 -204 116 -88 51 -177 102 -198 114 -21 11
-46 26 -55 31 -57 34 -422 241 -445 253 -23 11 -27 19 -22 36 15 47 14 176 -1
228 -69 235 -319 363 -551 282z m-156 -701 c-10 -18 -293 -509 -533 -923 -141
-245 -262 -454 -268 -465 -17 -30 -206 -358 -216 -375 -10 -16 -96 -164 -128
-220 -10 -19 -42 -73 -69 -120 -27 -47 -52 -93 -56 -102 -24 -64 -27 8 -25
553 l3 571 40 16 c72 28 147 85 191 144 62 84 79 142 79 264 0 81 3 104 15
111 8 6 36 21 62 36 25 14 64 37 87 51 22 14 43 26 45 26 4 0 429 241 476 270
31 19 295 169 298 170 2 0 1 -3 -1 -7z m723 -71 c19 -10 206 -117 415 -237
209 -120 392 -225 407 -232 26 -13 26 -15 22 -100 -2 -48 1 -105 7 -128 38
-143 135 -249 282 -304 l27 -11 0 -570 c0 -313 -4 -570 -8 -570 -5 0 -17 17
-28 38 -12 20 -86 150 -166 287 -80 138 -156 270 -170 295 -14 25 -225 389
-468 810 -243 421 -446 773 -452 784 -8 15 0 13 43 -12 30 -16 70 -39 89 -50z
m-394 -38 l84 3 41 -71 c23 -39 83 -143 134 -231 51 -88 229 -396 395 -685
167 -289 352 -608 410 -710 59 -102 150 -260 203 -353 l97 -167 -41 -55 c-22
-29 -49 -75 -59 -102 l-18 -48 -1282 0 -1282 0 -18 48 c-10 27 -37 73 -60 103
l-42 55 40 67 c78 130 252 434 252 438 0 3 8 17 19 32 14 21 169 287 271 467
29 51 579 1005 638 1105 73 125 67 120 104 110 17 -5 68 -8 114 -6z m1251
-2644 c2 -10 -38 -38 -119 -84 -68 -39 -250 -143 -405 -232 -155 -89 -308
-177 -340 -195 -32 -18 -68 -39 -80 -46 -20 -13 -26 -11 -76 26 -30 23 -56 41
-59 41 -3 0 -23 8 -44 17 -55 24 -60 25 -145 28 -107 5 -219 -32 -286 -95 -12
-11 -28 -20 -34 -20 -10 0 -531 295 -922 522 -37 21 -65 43 -62 49 4 6 490 8
1288 7 1130 -3 1282 -5 1284 -18z"/>
</g>
</svg>
